<?xml version="1.0" encoding="UTF-8"?>
<!DOCTYPE svg PUBLIC "-//W3C//DTD SVG 1.1//EN" "http://www.w3.org/Graphics/SVG/1.1/DTD/svg11.dtd">
<!-- Creator: CorelDRAW 2017 -->
<svg xmlns="http://www.w3.org/2000/svg" xml:space="preserve" width="1200px" height="1800px" version="1.1" style="shape-rendering:geometricPrecision; text-rendering:geometricPrecision; image-rendering:optimizeQuality; fill-rule:evenodd; clip-rule:evenodd"
viewBox="0 0 1198.68 1798.02"
 xmlns:xlink="http://www.w3.org/1999/xlink">
 <defs>
  <style type="text/css">
   <![CDATA[
    .fil0 {fill:#E9E9E9}
    .fil1 {fill:#666666;fill-rule:nonzero}
   ]]>
  </style>
 </defs>
 <g id="Layer_x0020_1">
  <metadata id="CorelCorpID_0Corel-Layer"/>
  <polygon class="fil0" points="0,0 1198.68,0 1198.68,1798.02 0,1798.02 "/>
  <path class="fil1" d="M449.51 1023.06l59.65 -26.64c5.07,18.12 13.91,32.25 26.64,42.29 12.62,9.92 29.13,16.07 49.62,18.44l0 -144.44c-43.25,-17.69 -74.64,-37.11 -94.17,-58.25 -19.63,-21.14 -29.45,-46.06 -29.45,-74.76 0,-33.44 11.01,-61.05 32.9,-82.73 21.9,-21.69 52.11,-34.95 90.72,-39.81l0 -35.38 33.01 0 0 36.03c30.21,2.69 55.02,10.25 74.44,22.44 19.31,12.19 33.22,29.12 41.42,50.8l-58.36 29.02c-7.12,-11.11 -15.32,-19.96 -24.59,-26.32 -9.28,-6.47 -20.29,-10.9 -32.91,-13.16l0 127.07c51.68,24.17 86.41,46.17 104.1,66.02 17.8,19.85 26.65,44.34 26.65,73.57 0,38.19 -11.33,69.04 -33.98,92.45 -22.76,23.51 -55.02,37.75 -96.77,42.82l0 53.72 -33.01 0 0 -52.42c-37.53,-2.48 -67.63,-12.19 -90.39,-29.02 -22.76,-16.94 -37.97,-40.78 -45.52,-71.74zm135.91 -300.53c-15.42,4.64 -26.64,11.11 -33.54,19.42 -7.01,8.3 -10.47,19.31 -10.47,33.01 0,13.05 3.46,24.38 10.47,34.08 6.9,9.71 18.12,18.67 33.54,26.87l0 -113.38zm33.01 332.68c17.26,-4.42 30.42,-11.97 39.49,-22.87 9.06,-10.89 13.59,-24.38 13.59,-40.56 0,-13.91 -4.21,-26.1 -12.62,-36.35 -8.42,-10.36 -21.9,-20.07 -40.46,-29.13l0 128.91z"/>
 </g>
</svg>
